<?xml version="1.0" standalone="no"?>
<!DOCTYPE svg PUBLIC "-//W3C//DTD SVG 20010904//EN"
 "http://www.w3.org/TR/2001/REC-SVG-20010904/DTD/svg10.dtd">
<svg version="1.0" xmlns="http://www.w3.org/2000/svg"
 width="700.000000pt" height="700.000000pt" viewBox="0 0 700.000000 700.000000"
 preserveAspectRatio="xMidYMid meet">
<metadata>
Created by potrace 1.11, written by Peter Selinger 2001-2013
</metadata>
<g transform="translate(0.000000,700.000000) scale(0.100000,-0.100000)"
fill="#000000" stroke="none">
<path d="M2661 6958 c-139 -48 -215 -96 -339 -214 -129 -122 -132 -123 -264
-120 -354 8 -511 -82 -676 -386 -27 -50 -29 -58 -14 -59 9 0 54 -2 99 -5 368
-16 666 -313 676 -673 2 -57 -2 -75 -19 -98 -28 -37 -87 -57 -129 -43 -56 19
-76 50 -86 136 -4 42 -16 98 -24 125 -22 66 -83 157 -136 203 -53 45 -168 101
-226 110 -23 3 -175 6 -338 6 -337 1 -308 7 -406 -90 -152 -151 -282 -398
-314 -600 -3 -19 -8 -48 -12 -65 -3 -16 -7 -111 -8 -210 -4 -312 -39 -481
-140 -660 -113 -201 -157 -368 -155 -585 1 -132 8 -191 36 -290 49 -176 105
-275 280 -495 137 -173 223 -297 248 -360 10 -25 18 -84 20 -155 5 -134 17
-205 52 -326 25 -88 96 -255 121 -285 7 -8 13 -19 13 -23 0 -4 23 -42 52 -83
81 -117 180 -216 282 -283 141 -92 141 -92 160 -160 10 -34 19 -60 21 -58 2 1
5 53 6 113 6 225 76 403 222 561 139 149 330 242 536 260 96 8 141 -9 166 -63
42 -87 -17 -167 -125 -172 -202 -8 -400 -132 -493 -308 -65 -124 -70 -161 -72
-501 l-1 -302 51 -28 c27 -16 88 -44 134 -62 111 -44 146 -75 161 -143 6 -28
18 -83 27 -122 24 -112 84 -226 156 -298 106 -107 218 -149 382 -143 347 14
684 323 805 738 16 57 34 135 39 173 6 42 10 943 10 2285 1 2199 1 2215 -18
2183 -27 -43 -48 -53 -132 -58 -263 -18 -484 -162 -598 -391 -51 -104 -67
-174 -76 -338 -4 -61 -13 -139 -21 -175 -19 -83 -68 -215 -94 -251 -11 -16
-20 -32 -20 -36 0 -16 -115 -156 -168 -206 -118 -108 -247 -177 -410 -219
-227 -58 -342 -29 -342 89 0 37 6 50 34 78 22 22 44 34 62 35 205 6 360 68
512 204 32 28 116 142 140 190 11 22 29 71 41 109 20 66 24 95 36 271 3 44 7
91 11 105 3 14 7 36 10 49 11 53 56 168 89 229 155 282 441 467 756 489 98 6
149 -10 174 -56 13 -23 14 40 12 524 l-2 550 -29 58 c-95 186 -349 354 -551
362 -72 3 -91 -1 -194 -37z m-833 -2194 c13 -9 30 -31 38 -50 49 -118 -126
-328 -318 -380 -81 -22 -223 -18 -271 7 -9 6 -46 12 -82 16 -56 5 -71 3 -119
-21 -56 -27 -94 -68 -130 -139 -33 -64 -106 -86 -166 -50 -83 49 -66 166 41
287 120 135 321 194 489 142 158 -49 247 -17 330 116 36 57 53 76 80 85 39 14
73 9 108 -13z m1082 -1039 c52 -47 49 -118 -6 -180 -109 -125 -163 -254 -168
-405 -5 -147 39 -281 129 -396 100 -126 106 -164 39 -239 -219 -244 -225 -578
-17 -829 81 -98 82 -161 3 -214 -53 -36 -109 -22 -167 41 -87 95 -158 225
-195 354 -30 105 -32 322 -4 428 22 83 72 196 115 259 37 54 38 59 7 99 -84
110 -143 302 -144 466 -1 163 22 261 95 401 62 120 150 225 200 237 42 11 87
2 113 -22z m-1480 -316 c150 -80 246 -231 254 -401 2 -43 -5 -96 -20 -159 -43
-173 -9 -256 135 -335 91 -49 102 -143 25 -203 -35 -27 -85 -27 -143 1 -219
104 -327 359 -247 585 21 60 16 149 -12 203 -28 52 -61 82 -118 110 -59 27
-84 63 -84 117 0 38 5 50 34 79 45 45 95 46 176 3z"/>
<path d="M4090 6985 c-240 -46 -413 -157 -493 -315 l-32 -65 -2 -2805 c-2
-2739 -1 -2807 18 -2905 34 -178 89 -317 174 -444 176 -262 435 -422 685 -422
141 0 246 40 343 131 91 84 163 229 182 365 18 123 50 164 156 204 84 31 181
79 195 96 11 14 11 588 0 634 -36 150 -114 277 -227 364 -73 57 -205 105 -309
114 -41 3 -87 13 -102 21 -38 22 -62 75 -54 121 6 41 53 90 89 92 161 11 364
-49 501 -148 115 -83 231 -228 281 -351 47 -116 64 -207 65 -357 l1 -100 18
61 c21 75 44 105 101 135 314 166 570 613 585 1024 3 66 7 131 10 145 5 24
-22 60 -194 255 -85 97 -143 167 -181 219 -135 186 -331 290 -555 295 -185 4
-348 47 -490 130 -33 19 -62 37 -65 40 -3 3 -23 19 -45 36 -98 72 -204 203
-267 330 -70 140 -114 377 -83 451 28 67 104 93 166 57 39 -23 56 -64 63 -155
27 -358 323 -640 681 -649 326 -8 586 -134 763 -369 47 -63 213 -263 232 -280
3 -3 27 -31 54 -63 27 -32 52 -56 56 -55 7 3 90 105 202 249 93 119 184 296
202 391 2 13 8 41 14 63 23 89 31 271 17 380 -18 137 -63 277 -126 393 -23 42
-53 98 -66 124 -25 51 -67 203 -78 283 -4 28 -9 61 -12 75 -2 14 -6 115 -8
225 -3 185 -7 219 -40 365 -10 44 -41 125 -80 205 -65 135 -161 260 -272 353
l-50 43 -289 -1 c-159 -1 -310 -6 -334 -11 -71 -15 -126 -45 -176 -95 -58 -58
-90 -128 -104 -222 -11 -82 -29 -115 -68 -131 -57 -22 -103 -14 -136 23 -30
34 -37 67 -31 133 25 263 219 473 490 529 11 3 57 5 102 6 l82 2 -31 60 c-86
165 -176 264 -288 319 -103 51 -188 67 -345 67 -71 -1 -138 -1 -149 -1 -10 1
-69 50 -130 111 -152 150 -212 192 -316 220 -62 17 -222 20 -300 5z m421
-1415 c150 -39 265 -101 369 -197 117 -109 208 -265 235 -402 21 -110 61 -212
106 -270 122 -156 271 -233 457 -233 48 0 92 1 97 2 62 14 135 -42 135 -104 0
-50 -24 -92 -63 -113 -26 -14 -57 -17 -162 -17 -149 0 -208 11 -314 57 -250
108 -421 318 -476 584 -19 93 -39 143 -88 220 -104 167 -292 261 -496 251 -52
-3 -109 -1 -127 4 -54 14 -81 65 -75 140 2 30 56 76 98 83 21 3 45 8 53 9 32
7 210 -3 251 -14z m-138 -2194 c56 -23 159 -159 204 -270 78 -190 87 -377 27
-560 -37 -114 -104 -223 -198 -324 -109 -117 -159 -244 -158 -401 1 -128 53
-262 142 -364 47 -55 55 -73 51 -122 -6 -72 -87 -119 -155 -91 -75 32 -205
220 -238 346 -32 118 -39 180 -34 275 10 201 81 369 221 520 108 117 163 239
170 376 7 148 -36 274 -140 403 -43 54 -55 76 -55 103 0 45 26 89 64 107 38
19 58 20 99 2z"/>
</g>
</svg>
